<svg xmlns="http://www.w3.org/2000/svg" width="40" height="40"><path fill="#0D47A1" d="M29.08 37.006H10.934c-4.357 0-7.924-3.565-7.924-7.923V10.936c0-4.358 3.566-7.923 7.924-7.923H29.08c4.357 0 7.922 3.565 7.922 7.923v18.147c0 4.358-3.564 7.923-7.922 7.923zm-.295-21.817a2.648 2.648 0 0 0 0-3.734l-.266-.266a2.646 2.646 0 0 0-3.734 0l-4.797 4.799-4.799-4.799a2.646 2.646 0 0 0-3.734 0l-.266.266a2.648 2.648 0 0 0 0 3.734l4.799 4.798-4.799 4.799a2.647 2.647 0 0 0 0 3.733l.266.266a2.646 2.646 0 0 0 3.734 0l4.799-4.799 4.797 4.799a2.646 2.646 0 0 0 3.734 0l.266-.266a2.647 2.647 0 0 0 0-3.733l-4.799-4.799 4.799-4.798z" fill-rule="evenodd" clip-rule="evenodd"/></svg>