<svg xmlns="http://www.w3.org/2000/svg" width="40" height="40"><path fill="#0D47A1" style="transform-origin:20px 20px" d="M37.006-29.079v18.147c0 4.357-3.565 7.922-7.923 7.922H10.936c-4.358 0-7.923-3.565-7.923-7.922v-18.146c0-4.358 3.565-7.923 7.923-7.923h18.147c4.358-.001 7.923 3.564 7.923 7.922zm-22.145 4.962a2.492 2.492 0 0 0-3.511 0 2.492 2.492 0 0 0 0 3.512l6.832 6.832a2.47 2.47 0 0 0 1.741.826l.053.002h.006l.053.001h.006l.054-.001h.006l.053-.002a2.479 2.479 0 0 0 1.744-.827l6.831-6.831a2.49 2.49 0 0 0 0-3.511 2.493 2.493 0 0 0-3.512 0l-5.178 5.179-5.178-5.18z" fill-rule="evenodd" clip-rule="evenodd"/></svg>