<svg xmlns="http://www.w3.org/2000/svg" viewBox="0 0 40 40"><path d="M8.4 1h23.2C34 1 36 3 36 5.4v23.2c0 2.4-2 4.4-4.4 4.4H25l-5 5.9-5-5.9H8.4C6 33 4 31 4 28.6V5.4C4 3 6 1 8.4 1z" fill-rule="evenodd" clip-rule="evenodd" fill="#ffd600" stroke="#fff" stroke-miterlimit="10"/><path d="M24.3 6.8l7.5 13.5c1 2 1 4.1-.2 6l-.1.1c-1.1 1.8-3 2.8-5.1 2.8H13.6c-2.1 0-4-1-5.1-2.8l-.1-.1c-1.2-1.9-1.2-4.1-.2-6l7.5-13.5c.9-1.6 2.4-2.6 4.3-2.6 1.9.1 3.5 1 4.3 2.6zM20 9.5c-1.2 0-2.2 1-2.2 2.2v4.4c0 1.2 1 2.2 2.2 2.2 1.2 0 2.2-1 2.2-2.2v-4.4c0-1.2-1-2.2-2.2-2.2zm0 11c-1.2 0-2.2 1-2.2 2.2 0 1.2 1 2.2 2.2 2.2 1.2 0 2.2-1 2.2-2.2 0-1.3-1-2.2-2.2-2.2z" fill-rule="evenodd" clip-rule="evenodd" fill="#fff"/></svg>