<svg xmlns="http://www.w3.org/2000/svg" viewBox="0 0 40 40"><path d="M8.4 1h23.2C34 1 36 3 36 5.4v23.2c0 2.4-2 4.4-4.4 4.4H25l-5 5.9-5-5.9H8.4C6 33 4 31 4 28.6V5.4C4 3 6 1 8.4 1z" fill-rule="evenodd" clip-rule="evenodd" fill="#c62828" stroke="#fff" stroke-miterlimit="10"/><path d="M30.7 15.8h-1.4c-.3-2-1.3-3.9-2.6-5.2-1.4-1.4-3.2-2.3-5.3-2.6V6.4c0-.7-.6-1.3-1.3-1.3-.7 0-1.3.6-1.3 1.3v1.5c-2 .3-3.9 1.2-5.3 2.6-1.4 1.4-2.3 3.2-2.6 5.2H9.3c-.7 0-1.3.6-1.3 1.3 0 .7.6 1.3 1.3 1.3h1.4c.3 2.1 1.2 3.9 2.6 5.3 1.4 1.4 3.2 2.3 5.3 2.6v1.4c0 .7.6 1.3 1.3 1.3.7 0 1.3-.6 1.3-1.3v-1.4c2-.3 3.9-1.2 5.3-2.6 1.4-1.4 2.4-3.2 2.6-5.3h1.4c.7 0 1.3-.6 1.3-1.3.2-.6-.4-1.2-1.1-1.2zm-6 6c-.9.9-2.1 1.6-3.4 1.8v-1.2c0-.7-.6-1.3-1.3-1.3-.7 0-1.3.6-1.3 1.3v1.2c-1.3-.3-2.5-.9-3.4-1.8-.9-.9-1.6-2.1-1.8-3.4h1.2c.7 0 1.3-.6 1.3-1.3 0-.7-.6-1.3-1.3-1.3h-1.2c.3-1.3.9-2.4 1.8-3.3.9-.9 2.1-1.6 3.4-1.8v1.2c0 .7.6 1.3 1.3 1.3.7 0 1.3-.6 1.3-1.3v-1.2c1.3.3 2.5.9 3.4 1.8.9.9 1.5 2 1.8 3.3h-1.2c-.7 0-1.3.6-1.3 1.3 0 .7.6 1.3 1.3 1.3h1.2c-.2 1.3-.9 2.5-1.8 3.4z" fill="#fff"/></svg>