<svg xmlns="http://www.w3.org/2000/svg" viewBox="0 0 40 40"><path d="M8.4 1h23.2C34 1 36 3 36 5.4v23.2c0 2.4-2 4.4-4.4 4.4H25l-5 5.9-5-5.9H8.4C6 33 4 31 4 28.6V5.4C4 3 6 1 8.4 1z" fill-rule="evenodd" clip-rule="evenodd" fill="#f57c00" stroke="#fff" stroke-miterlimit="10"/><path d="M26.1 24.8h-.3l2.1 3.6c.2.3 0 .7-.4.7h-2.1c-.6 0-.6-1.4-1.4-1.4h-8.6c-.8 0-.7 1.4-1.4 1.4h-2c-.4 0-.6-.4-.4-.7l2.1-3.6h-.3c-1.2 0-2.2-1-2.2-2.2V7.5c0-1.2 1-2.2 2.2-2.2h3c.3-.8 1.1-1.4 2-1.4h2.9c.9 0 1.7.6 2 1.4h3c1.2 0 2.2 1 2.2 2.2v15.1c-.2 1.2-1.2 2.2-2.4 2.2zM16 26.2h7.2c.8 0 .1-1.4-.7-1.4h-5.8c-.8 0-1.5 1.4-.7 1.4zm-1.4-5c.8 0 1.4-.6 1.4-1.4 0-.8-.6-1.4-1.4-1.4s-1.4.6-1.4 1.4c0 .7.6 1.4 1.4 1.4zm2.9-11.5h-2.9c-.8 0-1.4.6-1.4 1.4v4.3c0 .8.6 1.4 1.4 1.4h2.9c.8 0 1.4-.6 1.4-1.4v-4.3c0-.8-.6-1.4-1.4-1.4zm2.2-4.4c-.8 0-1.4.6-1.4 1.4s.6 1.4 1.4 1.4c.8 0 1.4-.6 1.4-1.4s-.7-1.4-1.4-1.4zm6.4 5.8c0-.8-.6-1.4-1.4-1.4h-2.9c-.8 0-1.4.6-1.4 1.4v4.3c0 .8.6 1.4 1.4 1.4h2.9c.8 0 1.4-.6 1.4-1.4v-4.3zm-1.4 7.2c-.8 0-1.4.6-1.4 1.4 0 .8.6 1.4 1.4 1.4.8 0 1.4-.6 1.4-1.4 0-.8-.6-1.4-1.4-1.4z" fill-rule="evenodd" clip-rule="evenodd" fill="#fff"/></svg>