<svg xmlns="http://www.w3.org/2000/svg" viewBox="0 0 40 40"><path d="M8.4 1h23.2C34 1 36 3 36 5.4v23.2c0 2.4-2 4.4-4.4 4.4H25l-5 5.9-5-5.9H8.4C6 33 4 31 4 28.6V5.4C4 3 6 1 8.4 1z" fill-rule="evenodd" clip-rule="evenodd" fill="#d32f2f" stroke="#fff" stroke-miterlimit="10"/><path d="M26.4 24.9H26l2 3.5c.2.3 0 .7-.4.7h-2.1c-.2 0-.3-.1-.4-.2l-2.3-4h-5.7l-2.3 4c-.1.1-.2.2-.4.2h-2.1c-.4 0-.6-.4-.4-.7l2-3.5h-.3c-1.2 0-2.1-.9-2.1-2.1V9.4c0-1.2.9-2.1 2.1-2.1H17l-.5-2.5c0-.6.5-1.1 1.1-1.1h5c.6 0 1.1.5 1.1 1.1L23 7.3h3.3c1.2 0 2.1 1 2.1 2.1v13.4c.1 1.2-.9 2.1-2 2.1zm-1.5-2.1c.8 0 1.4-.6 1.4-1.4s-.6-1.4-1.4-1.4-1.4.6-1.4 1.4c0 .8.7 1.4 1.4 1.4zm-11.3-1.4c0 .8.6 1.4 1.4 1.4.8 0 1.4-.6 1.4-1.4S15.8 20 15 20c-.7 0-1.4.6-1.4 1.4zm5.2-15.5l.3 1.4h1.8l.3-1.4h-2.4zm5.4 4.1c0-.3-.3-.6-.6-.6h-7.2c-.3 0-.6.3-.6.6v.2c0 .3.3.6.6.6h7.2c.3 0 .6-.3.6-.6V10zm2.2 3.6c0-.8-.6-1.4-1.4-1.4h-9.9c-.8 0-1.4.6-1.4 1.4v3.5c0 .8.6 1.4 1.4 1.4H25c.8 0 1.4-.6 1.4-1.4v-3.5z" fill-rule="evenodd" clip-rule="evenodd" fill="#fff"/></svg>