<svg version="1.1" id="co_x5F_player" xmlns="http://www.w3.org/2000/svg" x="0" y="0" viewBox="0 0 40 40" xml:space="preserve"><style>.st1{fill-rule:evenodd;clip-rule:evenodd;fill:#fff}</style><path d="M8.4 1h23.2C34 1 36 3 36 5.4v23.2c0 2.4-2 4.4-4.4 4.4H25l-5 5.9-5-5.9H8.4C6 33 4 31 4 28.6V5.4C4 3 6 1 8.4 1z" fill-rule="evenodd" clip-rule="evenodd" fill="#01579b" stroke="#fff" stroke-miterlimit="10"/><path class="st1" d="M23.4 15.8h.8c.8 0 1.5.7 1.5 1.5v11.3c0 .8-.7 1.5-1.5 1.5h-.8c-.8 0-1.5-.7-1.5-1.5V17.3c0-.9.6-1.5 1.5-1.5zM20 4.5c.6 0 1.1.5 1.1 1.1v8.3c0 .6-.5 1.1-1.1 1.1s-1.1-.5-1.1-1.1V5.6c0-.6.5-1.1 1.1-1.1zm3.8 0c.6 0 1.1.5 1.1 1.1v8.3c0 .6-.5 1.1-1.1 1.1-.6 0-1.1-.5-1.1-1.1V5.6c-.1-.6.4-1.1 1.1-1.1zm3.7 0c.6 0 1.1.5 1.1 1.1v8.3c0 .6-.5 1.1-1.1 1.1s-1.1-.5-1.1-1.1V5.6c0-.6.5-1.1 1.1-1.1z"/><path class="st1" d="M20.4 13.5h6.8c.8 0 1.5-.8 1.5 0v2.3c0 .8-.7 1.5-1.5 1.5h-6.8c-.8 0-1.5-.7-1.5-1.5v-2.3c0-.8.6 0 1.5 0zM13.6 12h1.5c1.2 0 2.3 1 2.3 2.3V18c0 1.2-1 2.3-2.3 2.3h-1.5c-1.2 0-2.3-1-2.3-2.3v-3.8c.1-1.2 1.1-2.2 2.3-2.2z"/><path class="st1" d="M15.5 7.5c1 0 1.9.8 1.9 1.9v18.8c0 1-.8 1.9-1.9 1.9s-1.9-.8-1.9-1.9V9.4c0-1.1.9-1.9 1.9-1.9z"/><path class="st1" d="M14.4 4.5c1.7 0 3 1.3 3 3V15c0 1.7-1.3 3-3 3s-3-1.3-3-3V7.5c0-1.7 1.3-3 3-3z"/></svg>