<svg xmlns="http://www.w3.org/2000/svg" viewBox="0 0 40 40"><path d="M8.4 1h23.2C34 1 36 3 36 5.4v23.2c0 2.4-2 4.4-4.4 4.4H25l-5 5.9-5-5.9H8.4C6 33 4 31 4 28.6V5.4C4 3 6 1 8.4 1z" fill-rule="evenodd" clip-rule="evenodd" fill="#01579b" stroke="#fff" stroke-miterlimit="10"/><path d="M30.6 18.3l-1.2-4.4c-.1-.3-.6-.2-.4.2l1.7 6.5c.1.3 0 .7-.4.7H29v5c0 .9-1.4.9-1.4 0v-5h-.7v5c0 .9-1.4.9-1.4 0v-5h-1.4c-.3 0-.5-.4-.4-.7l1.7-6.5c.1-.4-.4-.5-.4-.2l-1.2 4.4c-.2.6-1.6.6-1.2-.6l1.5-5c.2-.6.6-1.1 1.4-1.1h.9c-.7-.3-1.2-1-1.2-1.9 0-1.1.9-2.1 2.1-2.1 1.1 0 2.1.9 2.1 2.1 0 .8-.5 1.5-1.2 1.9h.8c.8 0 1.3.5 1.4 1.1l1.5 5c.3 1.1-1.1 1.2-1.3.6zM19.7 29.6h-.2c-.5 0-.9-.4-.9-.9V5.5c0-.5.4-.9.9-.9h.2c.5 0 1 .4 1 .9v23.3c-.1.4-.5.8-1 .8zM15 18.3v-4.2c0-.5-.7-.5-.7 0v11.7c0 1.4-2.1 1.4-2.1 0V19c0-.5-.7-.5-.7 0v6.9c0 1.4-2.1 1.4-2.1 0V14.1c0-.4-.7-.5-.7 0v4.2c0 1-1.4.9-1.4 0v-4.8c0-1 .8-1.9 1.9-1.9h1.9c-.8-.3-1.3-1.1-1.3-1.9 0-1.1.9-2.1 2.1-2.1s2.1.9 2.1 2c0 .9-.5 1.6-1.3 1.9h1.8c1 0 1.9.8 1.9 1.8v4.9c0 1-1.4 1-1.4.1z" fill-rule="evenodd" clip-rule="evenodd" fill="#fff"/></svg>