<svg xmlns="http://www.w3.org/2000/svg" viewBox="0 0 40 40"><path d="M8.4 1h23.2C34 1 36 3 36 5.4v23.2c0 2.4-2 4.4-4.4 4.4H25l-5 5.9-5-5.9H8.4C6 33 4 31 4 28.6V5.4C4 3 6 1 8.4 1z" fill-rule="evenodd" clip-rule="evenodd" fill="#2e7d32" stroke="#fff" stroke-miterlimit="10"/><path d="M28.9 17.7h-5c-.4 0-.7-.3-.7-.7v-2.6l-2.3 3.5 3.3 2c.4.2.6.6.6 1v7.3c0 .7-.6 1.3-1.4 1.3H23c-.7 0-1.4-.6-1.4-1.3V22l-3.1-1.8v4.3c0 .5-.4.8-.8.8h-6.4c-.7 0-1.4-.6-1.4-1.3v-.4c0-.7.6-1.4 1.4-1.4h4.2v-4.1c0-.3.1-.6.3-.9l4-6.5h-3.9L14.5 13c-.3.6-1.1.7-1.6.4-.6-.3-.7-1.1-.4-1.6l1.8-2.9c.2-.3.4-.4.7-.4h5.7c.3 0 .6.1.9.3l.8.6c-.3-.5-.5-1.1-.5-1.7 0-1.7 1.3-3 3-3s3 1.3 3 3-1.3 3-3 3c-.2 0-.4 0-.6-.1l.4.3c.5.3.8.8.8 1.4v3.1h3.4c.7 0 1.2.5 1.2 1.1-.1.7-.6 1.2-1.2 1.2z" fill-rule="evenodd" clip-rule="evenodd" fill="#fff"/></svg>