<svg xmlns="http://www.w3.org/2000/svg" viewBox="0 0 40 40"><path d="M8.4 1h23.2C34 1 36 3 36 5.4v23.2c0 2.4-2 4.4-4.4 4.4H25l-5 5.9-5-5.9H8.4C6 33 4 31 4 28.6V5.4C4 3 6 1 8.4 1z" fill-rule="evenodd" clip-rule="evenodd" fill="#01579b" stroke="#fff" stroke-miterlimit="10"/><path d="M28.8 7.9c4.9 4.9 4.9 12.8 0 17.7-4.9 4.9-12.8 4.9-17.7 0-4.9-4.9-4.9-12.8 0-17.7C16 3.1 24 3.1 28.8 7.9zm-6.7 6c0-.7-.6-1.3-1.3-1.3h-3.5c-.6 0-1.2.8-1.2 1.4 0 .6.6 1.4 1.2 1.4h1.3v6.9h-1.3c-1.6 0-1.5 2.8 0 2.8h6c1.6 0 1.6-2.8 0-2.8h-1.2v-8.4zm-1.8-7c-1.3 0-2.4 1.1-2.4 2.4 0 1.3 1.1 2.4 2.4 2.4s2.4-1.1 2.4-2.4c0-1.3-1.1-2.4-2.4-2.4z" fill-rule="evenodd" clip-rule="evenodd" fill="#fff"/></svg>