<svg xmlns="http://www.w3.org/2000/svg" viewBox="0 0 40 40"><path d="M8.4 1h23.2C34 1 36 3 36 5.4v23.2c0 2.4-2 4.4-4.4 4.4H25l-5 5.9-5-5.9H8.4C6 33 4 31 4 28.6V5.4C4 3 6 1 8.4 1z" fill-rule="evenodd" clip-rule="evenodd" fill="#2e7d32" stroke="#fff" stroke-miterlimit="10"/><path d="M30.6 27.3L22 12.1c-.2-.3-.3-.7-.2-1l2.5-4.4c.5-.9-.7-1.6-1.3-.7l-2.3 4V5.3c0-1-1.4-1-1.4 0V10L17 6.1c-.5-.9-1.7-.2-1.3.7l2.5 4.4c.2.3 0 .7-.1 1L9.4 27.3c-.3.5-.3 1 0 1.5s.8.8 1.3.8h18.5c.6 0 1-.3 1.3-.8.4-.5.4-1 .1-1.5zm-7 .6c-.1.2-.3.3-.5.3h-6c-.2 0-.4-.1-.5-.3-.1-.2-.1-.4 0-.6l3-5.3c.1-.2.3-.3.5-.3s.4.1.5.3l3 5.3c.1.2.1.4 0 .6z" fill-rule="evenodd" clip-rule="evenodd" fill="#fff"/></svg>