<svg xmlns="http://www.w3.org/2000/svg" viewBox="0 0 40 40"><path d="M8.4 1h23.2C34 1 36 3 36 5.4v23.2c0 2.4-2 4.4-4.4 4.4H25l-5 5.9-5-5.9H8.4C6 33 4 31 4 28.6V5.4C4 3 6 1 8.4 1z" fill-rule="evenodd" clip-rule="evenodd" fill="#2e7d32" stroke="#fff" stroke-miterlimit="10"/><path d="M7.6 16.9L19 5.1c.4-.5 1.2-.5 1.6 0l4.8 4.9V7.1c0-.6.5-1.1 1.1-1.1h2c.6 0 1.1.5 1.1 1.1v7.2l2.5 2.6c.4.4.4 1.1 0 1.6l-.1.1c-.4.4-1.2.4-1.6 0l-.8-.8v9.9c0 1-.8 1.9-1.9 1.9H12c-1 0-1.9-.8-1.9-1.9v-9.9l-.9.9c-.4.4-1.1.4-1.6 0l-.1-.1c-.3-.6-.3-1.3.1-1.7zm9.3 0c-.4 0-.7.3-.7.7v1.9c0 .4.3.7.7.7h1.9c.4 0 .7-.3.7-.7v-1.9c0-.4-.3-.7-.7-.7h-1.9zm4.2 0c-.4 0-.7.3-.7.7v1.9c0 .4.3.7.7.7H23c.4 0 .7-.3.7-.7v-1.9c0-.4-.3-.7-.7-.7h-1.9zm2.6 5c0-.4-.3-.7-.7-.7h-1.9c-.4 0-.7.3-.7.7v1.9c0 .4.3.7.7.7H23c.4 0 .7-.3.7-.7v-1.9zm-5 2.6c.4 0 .7-.3.7-.7v-1.9c0-.4-.3-.7-.7-.7h-1.9c-.4 0-.7.3-.7.7v1.9c0 .4.3.7.7.7h1.9z" fill-rule="evenodd" clip-rule="evenodd" fill="#fff"/></svg>