<svg xmlns="http://www.w3.org/2000/svg" viewBox="0 0 40 40"><path d="M8.4 1h23.2C34 1 36 3 36 5.4v23.2c0 2.4-2 4.4-4.4 4.4H25l-5 5.9-5-5.9H8.4C6 33 4 31 4 28.6V5.4C4 3 6 1 8.4 1z" fill-rule="evenodd" clip-rule="evenodd" fill="#7cb342" stroke="#fff" stroke-miterlimit="10"/><path d="M28.9 29.3c-1 0-2-1.2-3-1.2s-2 1.3-2.9 1.2c-1 0-2-1.3-3-1.3s-2 1.3-3 1.3-2-1.2-3-1.2-2 1.3-2.9 1.2c-1 0-2-1.3-3-1.3v-1.7c1 0 2 1.3 3 1.3s2-1.2 2.9-1.2 2 1.2 3 1.2 2-1.3 3-1.3 2 1.3 3 1.3 2-1.2 2.9-1.2c1 0 2 1.2 3 1.2s2-1.3 3-1.3V28c-1 .1-2 1.3-3 1.3zm-3-4.2c-1 0-2 1.3-2.9 1.2-.9 0-1.8-1-2.7-1.2h-.6c-.9.2-1.7 1.2-2.7 1.2s-2-1.2-3-1.2-2 1.3-2.9 1.2c-1 0-2-1.3-3-1.3v-1.7c1 0 2 1.3 3 1.3s2-1.2 2.9-1.2c1 0 2 1.3 3 1.2 1 0 2-1.3 3-1.3s2 1.3 3 1.3 2-1.2 2.9-1.2c1 0 2 1.3 3 1.2 1 0 2-1.3 3-1.3V25c-1 0-2 1.3-3 1.3s-2-1.2-3-1.2zm-.2-2.8c-.9.1-1.8 1.2-2.7 1.2-1 0-2-1.3-3-1.3s-2 1.3-3 1.3c-.9 0-1.8-1.1-2.7-1.2l-2.7-4.7c-.3-.8 0-1.7.8-2l2.1-.9v-3.3c0-.6.3-1.1.9-1.4l4-2c.4-.2.9-.2 1.3 0l4.1 1.9c.6.3.9.8.9 1.4v3.3l2.1 1c.8.4 1.1 1.3.8 2l-2.9 4.7zm-2.9-11l-2.2-1c-.4-.2-.9-.2-1.3 0l-2.8 1.3v1.9l2.8-1.3c.4-.2.9-.2 1.3 0l2.2 1v-1.9zm-3.4-4.9l-1.5.6V5.6c0-.7.9-1.4 2.1-1.4 1.2 0 2.1.6 2.1 1.4V7l-1.5-.7c-.4-.1-.8-.1-1.2.1z" fill-rule="evenodd" clip-rule="evenodd" fill="#fff"/></svg>