<svg xmlns="http://www.w3.org/2000/svg" viewBox="0 0 40 40"><path d="M8.4 1h23.2C34 1 36 3 36 5.4v23.2c0 2.4-2 4.4-4.4 4.4H25l-5 5.9-5-5.9H8.4C6 33 4 31 4 28.6V5.4C4 3 6 1 8.4 1z" fill-rule="evenodd" clip-rule="evenodd" fill="#c62828" stroke="#fff" stroke-miterlimit="10"/><path d="M16.7 6.9h6.6c1.2 0 2.2.6 2.8 1.6l1.6 2.8h1.6c1.8 0 3.3 1.5 3.3 3.3v9.1c0 1.8-1.5 3.3-3.3 3.3H10.6c-1.8 0-3.3-1.5-3.3-3.3v-9.1c0-1.8 1.5-3.3 3.3-3.3h1.6l1.6-2.8c.7-1 1.7-1.6 2.9-1.6zm1 2.2c-.4 0-.7.3-.7.7v.2c0 .4.3.7.7.7h4.6c.4 0 .7-.3.7-.7v-.3c0-.4-.3-.7-.7-.7h-4.6v.1zm2.3 3.7c-3.3 0-5.9 2.7-5.9 5.9s2.7 5.9 5.9 5.9 5.9-2.7 5.9-5.9-2.6-5.9-5.9-5.9zm0 6l-3.4-1.6c-.2.5-.3 1-.3 1.6 0 2.1 1.7 3.7 3.7 3.7s3.7-1.7 3.7-3.7c0-2.1-1.7-3.7-3.7-3.7-.4 0-.9.1-1.3.2l1.3 3.5z" fill-rule="evenodd" clip-rule="evenodd" fill="#fff"/></svg>