<svg xmlns="http://www.w3.org/2000/svg" viewBox="0 0 40 40"><path d="M8.4 1h23.2C34 1 36 3 36 5.4v23.2c0 2.4-2 4.4-4.4 4.4H25l-5 5.9-5-5.9H8.4C6 33 4 31 4 28.6V5.4C4 3 6 1 8.4 1z" fill-rule="evenodd" clip-rule="evenodd" fill="#2e7d32" stroke="#fff" stroke-miterlimit="10"/><path d="M20 5.4c6.5 0 11.7 5.2 11.7 11.7 0 6.5-5.2 11.7-11.7 11.7-6.5 0-11.7-5.2-11.7-11.7 0-6.4 5.2-11.7 11.7-11.7zm5.5 6.7c.1-.2 0-.3-.1-.4-.1-.1-.3-.2-.4-.1l-7.7 2.8-2.8 7.7c-.1.2 0 .3.1.4.1.1.3.2.4.1l7.7-2.8 2.8-7.7zm-3.7 6.8l-3.7-3.7-2 5.7 5.7-2zM20 8c-5 0-9.1 4.1-9.1 9.1s4.1 9.1 9.1 9.1 9.1-4.1 9.1-9.1S25 8 20 8z" fill-rule="evenodd" clip-rule="evenodd" fill="#fff"/></svg>