<svg xmlns="http://www.w3.org/2000/svg" viewBox="0 0 40 40"><path d="M8.4 1h23.2C34 1 36 3 36 5.4v23.2c0 2.4-2 4.4-4.4 4.4H25l-5 5.9-5-5.9H8.4C6 33 4 31 4 28.6V5.4C4 3 6 1 8.4 1z" fill-rule="evenodd" clip-rule="evenodd" fill="#03a9f4" stroke="#fff" stroke-miterlimit="10"/><path d="M29.2 22.8v5c0 .9-.8 1.7-1.7 1.7H27c-.9 0-1.7-.8-1.7-1.7v-2.9H14.6v2.9c0 .9-.8 1.7-1.7 1.7h-.5c-.9 0-1.7-.8-1.7-1.7V6.5c0-1.3 1-2.3 2.3-2.3h13.8c1.3 0 2.3 1 2.3 2.3v16.1c.1.1.1.1.1.2zm-3.9-.2c.8 0 1.5-.7 1.5-1.5s-.7-1.5-1.5-1.5-1.5.7-1.5 1.5.7 1.5 1.5 1.5zM13.1 21c0 .8.7 1.5 1.5 1.5s1.5-.7 1.5-1.5-.7-1.5-1.5-1.5-1.5.7-1.5 1.5zM24.6 7.2c0-.4-.3-.7-.7-.7h-7.8c-.4 0-.7.3-.7.7v.2c0 .4.3.7.7.7h7.8c.4 0 .7-.3.7-.7v-.2zm2.3 3.9c0-.8-.7-1.5-1.5-1.5H14.7c-.8 0-1.5.7-1.5 1.5v4.6c0 .8.7 1.5 1.5 1.5h10.7c.8 0 1.5-.7 1.5-1.5v-4.6z" fill-rule="evenodd" clip-rule="evenodd" fill="#fff"/></svg>