<svg xmlns="http://www.w3.org/2000/svg" width="40" height="40"><path d="M35.996 18.004h-2.15a13.99 13.99 0 0 0-3.961-7.864 13.986 13.986 0 0 0-7.908-3.966V3.986c0-1.119-.918-1.979-2.02-1.979-1.09 0-1.98.889-1.98 1.979v2.188a13.98 13.98 0 0 0-7.907 3.966 13.99 13.99 0 0 0-3.961 7.864h-2.15c-1.119 0-1.98.918-1.98 2.02 0 1.091.889 1.98 1.98 1.98h2.137a13.988 13.988 0 0 0 3.975 7.952 13.982 13.982 0 0 0 7.906 3.967v2.1c0 1.119.918 1.98 2.02 1.98 1.092 0 1.98-.89 1.98-1.98v-2.1a13.981 13.981 0 0 0 7.908-3.967 13.985 13.985 0 0 0 3.973-7.952h2.139c1.119 0 1.979-.917 1.979-2.019a1.986 1.986 0 0 0-1.98-1.981zm-8.965 9.099a9.982 9.982 0 0 1-5.055 2.726v-1.844c0-1.12-.918-1.98-2.02-1.98-1.09 0-1.98.889-1.98 1.98v1.844a9.98 9.98 0 0 1-5.055-2.726 9.963 9.963 0 0 1-2.732-5.099h1.809c1.119 0 1.98-.917 1.98-2.019 0-1.09-.891-1.98-1.98-1.98h-1.791a9.977 9.977 0 0 1 2.715-5.01 9.983 9.983 0 0 1 5.055-2.726v1.756c0 1.12.918 1.98 2.02 1.98 1.092 0 1.98-.889 1.98-1.98v-1.756a9.964 9.964 0 0 1 5.055 2.726 9.969 9.969 0 0 1 2.717 5.01h-1.791c-1.119 0-1.98.918-1.98 2.02 0 1.091.889 1.98 1.98 1.98h1.809a9.992 9.992 0 0 1-2.736 5.098z" fill-rule="evenodd" clip-rule="evenodd" fill="#f57c00" stroke="#fff" stroke-miterlimit="10"/></svg>